<svg width="200" height="50" viewBox="0 0 200 50" fill="none" xmlns="http://www.w3.org/2000/svg">
  {/* ÍCONO Q? A LA IZQUIERDA */}
  <g transform="translate(0, 9)"> {/* Centrado verticalmente */}
    <rect width="32" height="32" rx="8" fill="#FACC15"/>
    <path d="M16 26C21.5228 26 26 21.5228 26 16C26 10.4772 21.5228 6 16 6C10.4772 6 6 10.4772 6 16C6 18.2791 6.76415 20.3812 8.05679 22.0854L6.62132 23.5208C6.2308 23.9113 6.2308 24.5445 6.62132 24.935C7.01184 25.3255 7.64501 25.3255 8.03553 24.935L9.91456 23.056C11.6188 24.3486 13.7209 25.1128 16 25.1128V26Z" fill="#020617"/>
    <path d="M16 10C14.3431 10 13 11.3431 13 13H15C15 12.4477 15.4477 12 16 12C16.5523 12 17 12.4477 17 13C17 13.5523 16.5523 14 16 14V16H18V14C19.1046 14 20 13.1046 20 12C20 9.79086 18.2091 8 16 8C13.7909 8 12 9.79086 12 12H14C14 10.8954 14.8954 10 16 10Z" fill="#FACC15"/>
    <rect x="15" y="17" width="2" height="2" fill="#FACC15"/>
  </g>
  
  {/* TEXTO A LA DERECHA */}
  {/* Usamos una fuente de sistema sans-serif bold, simulando la de la app */}
  <text x="40" y="20" fill="#FACC15" font-family="system-ui, sans-serif" font-weight="900" font-size="16" letter-spacing="0.05em">QUIÉN</text>
  <text x="40" y="38" fill="#FACC15" font-family="system-ui, sans-serif" font-weight="900" font-size="16" letter-spacing="0.05em">CARAJO ES?</text>
</svg>